HIERARCHY
ROOT Hips
{
 OFFSET 0.000000 0.000000 0.000000
 CHANNELS 6 Xposition Yposition Zposition Yrotation Xrotation Zrotation
 JOINT Chest
 {
  OFFSET 0.000000 9.588913 -0.003946
  CHANNELS 3 Yrotation Xrotation Zrotation
  JOINT Chest2
  {
   OFFSET 0.000000 9.541882 0.008053
   CHANNELS 3 Yrotation Xrotation Zrotation
   JOINT Chest3
   {
    OFFSET 0.000000 9.501360 0.000000
    CHANNELS 3 Yrotation Xrotation Zrotation
    JOINT Chest4
    {
     OFFSET 0.000000 9.491660 0.000000
     CHANNELS 3 Yrotation Xrotation Zrotation
     JOINT Neck
     {
      OFFSET 0.000000 14.331917 0.000000
      CHANNELS 3 Yrotation Xrotation Zrotation
      JOINT Head
      {
       OFFSET 0.000000 8.884799 0.017034
       CHANNELS 3 Yrotation Xrotation Zrotation
       End Site
       {
        OFFSET 0.000000 16.896195 0.008993
       }
      }
     }
     JOINT RightCollar
     {
      OFFSET -2.923010 9.499495 0.000000
      CHANNELS 3 Yrotation Xrotation Zrotation
      JOINT RightShoulder
      {
       OFFSET -13.795216 0.000000 0.000000
       CHANNELS 3 Yrotation Xrotation Zrotation
       JOINT RightElbow
       {
        OFFSET -30.272209 0.000000 0.000000
        CHANNELS 3 Yrotation Xrotation Zrotation
        JOINT RightWrist
        {
         OFFSET -24.478199 0.000000 0.000000
         CHANNELS 3 Yrotation Xrotation Zrotation
         End Site
         {
          OFFSET -18.090752 0.000000 0.000000
         }
        }
       }
      }
     }
     JOINT LeftCollar
     {
      OFFSET 2.923010 9.499495 0.000000
      CHANNELS 3 Yrotation Xrotation Zrotation
      JOINT LeftShoulder
      {
       OFFSET 13.795216 0.000000 0.000000
       CHANNELS 3 Yrotation Xrotation Zrotation
       JOINT LeftElbow
       {
        OFFSET 30.272209 0.000000 0.000000
        CHANNELS 3 Yrotation Xrotation Zrotation
        JOINT LeftWrist
        {
         OFFSET 24.478199 0.000000 0.000000
         CHANNELS 3 Yrotation Xrotation Zrotation
         End Site
         {
          OFFSET 18.090752 0.000000 0.000000
         }
        }
       }
      }
     }
    }
   }
  }
 }
 JOINT RightHip
 {
  OFFSET -7.826875 0.019532 0.001973
  CHANNELS 3 Yrotation Xrotation Zrotation
  JOINT RightKnee
  {
   OFFSET 0.000000 -40.546152 -0.001885
   CHANNELS 3 Yrotation Xrotation Zrotation
   JOINT RightAnkle
   {
    OFFSET 0.000000 -39.417092 -0.003189
    CHANNELS 3 Yrotation Xrotation Zrotation
    JOINT RightToe
    {
     OFFSET 0.000000 -7.579396 17.243563
     CHANNELS 3 Yrotation Xrotation Zrotation
     End Site
     {
      OFFSET 0.000000 -1.500329 6.694466
     }
    }
   }
  }
 }
 JOINT LeftHip
 {
  OFFSET 7.826875 0.019532 0.001973
  CHANNELS 3 Yrotation Xrotation Zrotation
  JOINT LeftKnee
  {
   OFFSET 0.000000 -40.546152 -0.001885
   CHANNELS 3 Yrotation Xrotation Zrotation
   JOINT LeftAnkle
   {
    OFFSET 0.000000 -39.417092 -0.003189
    CHANNELS 3 Yrotation Xrotation Zrotation
    JOINT LeftToe
    {
     OFFSET 0.000000 -7.579396 17.243563
     CHANNELS 3 Yrotation Xrotation Zrotation
     End Site
     {
      OFFSET 0.000000 -1.500329 6.694466
     }
    }
   }
  }
 }
}
MOTION
Frames: 17
Frame Time: 0.008333
0.000000 87.345680 0.000000 0.000000 -5.767889 0.000000 0.000000 11.653876 0.000000 0.000000 -5.885988 0.000000 0.000000 -0.000000 0.000000 0.000000 -0.000000 0.000000 0.000000 12.528808 0.000000 0.000000 0.711711 0.000000 0.000000 -0.000000 0.000000 0.000000 -0.000000 0.000000 2.309063 -0.000000 0.000000 -2.309063 -0.000000 -0.000000 0.000000 -0.000000 0.000000 0.000000 0.000000 0.000000 -2.309063 0.000000 0.000000 2.309063 -0.000000 0.000000 0.000000 8.520374 0.000000 0.000000 1.905768 0.000000 -0.000000 -4.658254 0.000000 0.000000 -0.000000 0.000000 0.000000 8.520374 0.000000 0.000000 1.905768 0.000000 -0.000000 -4.658254 0.000000 0.000000 -0.000000 0.000000
24.097523 89.075543 12.106244 51.024953 -9.243973 2.213096 -2.170687 5.099238 1.576522 -1.257607 2.919836 0.969690 -1.564771 3.653033 1.202456 -1.257607 2.919835 0.969690 0.312418 29.071842 -1.791463 0.751051 6.586527 -2.051204 1.480577 3.254911 -4.316430 -3.061128 -0.053830 82.451907 23.252826 -4.609196 5.214157 -5.296931 -2.255559 -4.164285 1.320995 2.583193 -2.944453 7.837519 1.883015 -85.049411 -26.473077 11.761512 -13.427009 2.148428 1.445090 4.986595 -10.176971 6.459452 -10.625514 -2.766950 2.094812 -0.203555 -7.735305 -1.355859 5.001611 0.001841 0.143781 0.116573 7.878979 1.259231 8.571358 3.976796 0.024478 1.069717 -4.579265 4.718647 -11.245602 0.121148 -0.912413 -0.226405
24.251773 89.052468 12.133791 51.011326 -9.265938 2.128534 -2.209316 5.070226 1.494270 -1.269687 2.901120 0.997393 -1.579698 3.629765 1.237058 -1.269687 2.901120 0.997393 0.375268 29.128035 -1.753580 0.811982 6.660428 -2.024006 1.478592 3.219917 -4.289251 -3.092166 -0.138628 82.350311 23.829696 -4.171828 5.180561 -5.606981 -2.166243 -4.189543 1.264009 2.488294 -2.953548 7.854180 1.842725 -84.867523 -26.777852 11.675809 -13.664450 2.424102 1.520261 4.981732 -10.145057 6.603967 -10.607004 -2.782420 2.058800 -0.215491 -7.743891 -1.422185 5.080826 -0.006877 0.165701 0.101229 7.976271 1.276804 8.600436 3.623882 0.080895 1.115642 -4.601672 4.875383 -10.812672 0.160368 -0.806010 -0.521753
24.415623 89.025882 12.185887 50.979682 -9.299518 1.866594 -2.213103 5.051428 1.587075 -1.278877 2.884362 1.024149 -1.591018 3.608933 1.270494 -1.278877 2.884361 1.024148 0.435032 29.178302 -1.704058 0.866890 6.726268 -1.983145 1.478431 3.176860 -4.250246 -3.144807 -0.244756 82.245237 24.399565 -3.744766 5.149669 -5.905190 -2.089454 -4.214141 1.216112 2.383798 -2.952205 7.878928 1.799028 -84.697204 -27.093943 11.569048 -13.924976 2.724789 1.606493 4.975521 -10.058076 6.801286 -10.395540 -2.798701 2.023434 -0.242140 -7.765621 -1.421713 5.165489 -0.012468 0.112590 0.085877 8.044881 1.186242 8.773058 3.402870 0.399701 1.243998 -4.473262 4.809634 -10.635877 0.118886 -0.677570 -0.560574
24.599874 88.998762 12.241247 50.932204 -9.353361 1.582236 -2.201997 5.039247 1.701488 -1.284725 2.870189 1.048187 -1.598175 3.591315 1.300550 -1.284725 2.870188 1.048186 0.491212 29.223708 -1.643308 0.915314 6.785445 -1.928972 1.482267 3.128326 -4.198960 -3.216921 -0.371901 82.137116 24.957144 -3.323295 5.124645 -6.180072 -2.013005 -4.240286 1.173803 2.268311 -2.943374 7.909302 1.747638 -84.532273 -27.414956 11.448688 -14.207619 3.037156 1.691142 4.971632 -9.933854 7.029251 -10.161797 -2.825067 1.997641 -0.284305 -7.797180 -1.421737 5.269135 -0.013516 0.049193 0.073670 8.144776 1.088760 8.963155 3.399979 0.809693 1.441496 -4.552125 4.605279 -10.660304 0.084300 -0.570071 -0.471070
24.803595 88.973046 12.290729 50.871800 -9.425972 1.328522 -2.189588 5.024840 1.787365 -1.286192 2.859622 1.068336 -1.599879 3.578181 1.325767 -1.286192 2.859621 1.068336 0.543231 29.267052 -1.573692 0.957147 6.841701 -1.863992 1.489871 3.076446 -4.135396 -3.293211 -0.512230 82.012422 25.506348 -2.921512 5.113984 -6.423039 -1.929650 -4.270289 1.138775 2.141130 -2.934859 7.937854 1.683271 -84.367671 -27.728327 11.318904 -14.500441 3.346902 1.768688 4.960074 -9.780889 7.271178 -9.961619 -2.869100 1.985352 -0.342650 -7.833808 -1.433420 5.394246 -0.011599 -0.010089 0.064919 8.312747 1.074100 9.159850 3.513634 1.125395 1.605049 -4.809678 4.379794 -10.714369 0.072236 -0.483373 -0.376637
25.022845 88.950172 12.331541 50.790655 -9.518858 1.114327 -2.178881 5.008028 1.837891 -1.281609 2.853856 1.083973 -1.594040 3.571014 1.345375 -1.281608 2.853855 1.083973 0.593777 29.310415 -1.497234 0.995823 6.897891 -1.791074 1.499246 3.023536 -4.055265 -3.354083 -0.659603 81.853977 26.052631 -2.561831 5.116863 -6.633656 -1.837371 -4.305354 1.120362 2.000616 -2.933246 7.962202 1.603982 -84.196517 -28.025180 11.179513 -14.797049 3.647940 1.841330 4.928865 -9.601656 7.521517 -9.803445 -2.922497 1.984842 -0.414221 -7.879169 -1.455829 5.534836 -0.010195 -0.059060 0.060324 8.523528 1.197458 9.393414 3.553767 1.261116 1.617909 -4.961439 4.198073 -10.676303 0.066855 -0.401571 -0.316951
25.256854 88.931140 12.359748 50.672148 -9.635281 0.961586 -2.161725 4.993692 1.832390 -1.269560 2.852875 1.094517 -1.578894 3.569788 1.358656 -1.269560 2.852873 1.094517 0.645225 29.355004 -1.414875 1.034185 6.955688 -1.711806 1.513795 2.976420 -3.954747 -3.402395 -0.818479 81.662496 26.598215 -2.232966 5.125735 -6.815236 -1.743436 -4.346684 1.122020 1.851842 -2.935043 7.976753 1.504481 -84.015689 -28.304478 11.018782 -15.095002 3.940221 1.911041 4.873456 -9.392702 7.781750 -9.712442 -2.969797 1.992355 -0.489447 -7.933992 -1.471598 5.682799 -0.008209 -0.113565 0.061699 8.698553 1.465819 9.633660 3.424617 1.242430 1.478137 -4.838015 4.051920 -10.521936 0.072936 -0.302477 -0.298966
25.499366 88.916011 12.378994 50.515975 -9.773922 0.830382 -2.127951 4.986917 1.814057 -1.248623 2.855189 1.098950 -1.552674 3.572635 1.364354 -1.248622 2.855187 1.098949 0.693220 29.401476 -1.327199 1.067544 7.015915 -1.625845 1.532675 2.939576 -3.836823 -3.463969 -0.994943 81.458297 27.144130 -1.887710 5.136823 -6.969103 -1.667182 -4.396085 1.132182 1.705159 -2.930862 7.974491 1.374645 -83.828419 -28.576939 10.833502 -15.387188 4.232935 1.979606 4.787546 -9.158955 8.046695 -9.653941 -3.005559 2.011625 -0.560441 -7.977499 -1.473951 5.834552 -0.004965 -0.176363 0.066797 8.739051 1.827072 9.890450 3.236504 1.174564 1.272160 -4.472349 3.945710 -10.334457 0.067898 -0.237264 -0.291530
25.748352 88.904152 12.387858 50.323841 -9.927396 0.719981 -2.075686 4.985784 1.787289 -1.218948 2.858550 1.096705 -1.515579 3.576742 1.361769 -1.218948 2.858548 1.096703 0.735843 29.450803 -1.237585 1.094550 7.079919 -1.536504 1.555369 2.909994 -3.709429 -3.552218 -1.185588 81.262021 27.689015 -1.503063 5.139501 -7.098087 -1.617498 -4.448091 1.147670 1.569393 -2.914250 7.957961 1.208925 -83.641019 -28.859331 10.640127 -15.670535 4.541371 2.061347 4.677882 -8.914862 8.303541 -9.626676 -3.036646 2.050035 -0.626358 -7.996562 -1.466204 5.992230 -0.000786 -0.247164 0.071391 8.600964 2.223121 10.107122 3.197700 1.159054 1.112876 -4.056331 3.803756 -10.181703 0.056996 -0.187967 -0.279741
26.000452 88.894017 12.385243 50.097194 -10.077800 0.626137 -2.012169 4.980826 1.755464 -1.181968 2.859674 1.088285 -1.469402 3.578011 1.351527 -1.181968 2.859670 1.088282 0.778251 29.503710 -1.149904 1.121794 7.148848 -1.449241 1.585596 2.884290 -3.584465 -3.655363 -1.381294 81.092646 28.234175 -1.091282 5.112902 -7.211369 -1.584256 -4.491044 1.174624 1.453248 -2.881649 7.937462 1.010736 -83.459923 -29.173129 10.462832 -15.953851 4.869856 2.171201 4.579159 -8.671277 8.530385 -9.623811 -3.065121 2.109658 -0.684216 -7.990584 -1.450932 6.155627 0.003577 -0.321377 0.071612 8.353022 2.613072 10.259033 3.348993 1.202323 1.050619 -3.704898 3.634437 -10.097298 0.046854 -0.160115 -0.255831
26.253598 88.883489 12.368433 49.839468 -10.202607 0.560891 -1.940221 4.960917 1.705033 -1.138772 2.855297 1.075024 -1.415508 3.572375 1.335297 -1.138774 2.855293 1.075021 0.822626 29.557898 -1.066146 1.152136 7.219737 -1.366743 1.616437 2.860116 -3.475147 -3.755088 -1.575039 80.969754 28.788098 -0.653630 5.040960 -7.328463 -1.561367 -4.517011 1.210038 1.359865 -2.827520 7.918177 0.792187 -83.288249 -29.546751 10.325468 -16.249760 5.205159 2.309387 4.526354 -8.434089 8.701107 -9.660902 -3.084930 2.185438 -0.727650 -7.955665 -1.392474 6.322240 0.014169 -0.428514 0.069650 8.150743 2.970258 10.352556 3.534411 1.254907 1.040457 -3.412215 3.461133 -10.065588 0.042780 -0.141584 -0.213371
26.503869 88.870730 12.342487 49.564442 -10.298169 0.495659 -1.861076 4.931648 1.661277 -1.090473 2.843897 1.057749 -1.355281 3.557937 1.314105 -1.090476 2.843893 1.057746 0.868037 29.609912 -0.986466 1.184571 7.287982 -1.288953 1.635443 2.829021 -3.385754 -3.835038 -1.758276 80.904042 29.363090 -0.190427 4.918273 -7.477840 -1.531920 -4.523892 1.243131 1.278434 -2.746596 7.908707 0.574343 -83.123212 -30.004097 10.245587 -16.568073 5.526591 2.474155 4.532944 -8.211081 8.823054 -9.705683 -3.086017 2.280570 -0.758267 -7.901085 -1.370166 6.489593 0.024500 -0.501492 0.066326 8.096965 3.276426 10.454239 3.632202 1.289549 1.013051 -3.165175 3.321627 -10.033578 0.036975 -0.143880 -0.171239
26.752270 88.854159 12.307913 49.278000 -10.364916 0.445651 -1.775075 4.894681 1.609767 -1.039270 2.825839 1.035442 -1.291479 3.535160 1.286659 -1.039273 2.825836 1.035439 0.916025 29.657530 -0.909946 1.220594 7.350629 -1.215199 1.639124 2.779654 -3.311590 -3.883349 -1.919736 80.896520 29.971970 0.287809 4.750086 -7.682699 -1.473743 -4.516450 1.268000 1.193071 -2.637137 7.923579 0.375510 -82.957964 -30.558593 10.229721 -16.919413 5.821300 2.660311 4.595837 -8.011273 8.895795 -9.770184 -3.060904 2.389755 -0.781530 -7.846781 -1.360221 6.654618 0.035960 -0.560101 0.064907 8.168036 3.537322 10.552127 3.669912 1.310725 0.954269 -2.971058 3.193891 -9.972100 0.030704 -0.147097 -0.143050
26.999311 88.832534 12.266220 48.986111 -10.405455 0.420332 -1.685611 4.851079 1.542779 -0.987822 2.803153 1.007845 -1.227420 3.506589 1.252605 -0.987826 2.803150 1.007841 0.968059 29.698360 -0.838536 1.262259 7.404540 -1.147972 1.636037 2.703236 -3.249140 -3.899853 -2.053593 80.939257 30.623250 0.776372 4.551653 -7.954586 -1.391014 -4.504356 1.288692 1.091701 -2.504180 7.965883 0.203455 -82.789389 -31.209807 10.275691 -17.307587 6.082180 2.854010 4.702739 -7.841278 8.921977 -9.860689 -3.012415 2.506196 -0.804508 -7.799001 -1.326208 6.817319 0.050749 -0.634963 0.066535 8.269828 3.772085 10.617564 3.718327 1.322823 0.891220 -2.812739 3.066181 -9.893678 0.027588 -0.144910 -0.125961
27.242039 88.805274 12.224558 48.700771 -10.431081 0.388113 -1.598017 4.809140 1.488948 -0.937233 2.777933 0.975632 -1.164474 3.474848 1.212774 -0.937237 2.777931 0.975628 1.023910 29.731048 -0.773763 1.309652 7.447918 -1.088916 1.628709 2.600473 -3.191995 -3.891902 -2.162144 81.014000 31.323566 1.271408 4.341186 -8.298646 -1.293022 -4.494475 1.303701 0.972358 -2.351642 8.031625 0.056959 -82.617603 -31.942895 10.363584 -17.730362 6.295509 3.034002 4.840438 -7.704369 8.926873 -9.941109 -2.946362 2.631908 -0.832019 -7.752725 -1.348593 6.980275 0.060232 -0.659439 0.067431 8.353868 3.996018 10.676131 3.787294 1.324754 0.840678 -2.662178 2.939065 -9.820521 0.026462 -0.140624 -0.111649
27.481059 88.772181 12.183717 48.420885 -10.446884 0.360305 -1.510097 4.767517 1.436784 -0.886855 2.751915 0.939477 -1.101820 3.442111 1.168008 -0.886859 2.751914 0.939474 1.081497 29.755002 -0.716724 1.360704 7.479928 -1.038785 1.612123 2.479471 -3.133527 -3.871713 -2.252260 81.094695 32.078404 1.769557 4.142987 -8.709948 -1.182598 -4.491044 1.304303 0.838470 -2.182093 8.109918 -0.066468 -82.445285 -32.738642 10.446142 -18.180958 6.451787 3.184716 5.003789 -7.594063 8.916655 -10.027191 -2.868001 2.760146 -0.860253 -7.696752 -1.392302 7.142539 0.069295 -0.665321 0.068687 8.449782 4.212920 10.721264 3.837420 1.316119 0.796776 -2.509178 2.807517 -9.751792 0.027063 -0.132556 -0.097035
